<svg id="Layer_1" data-name="Layer 1" xmlns="http://www.w3.org/2000/svg" viewBox="0 0 119.9 19.23"><defs><style>.cls-1{fill:#fff;}.cls-2{fill:#fece41;}</style></defs><title>hs-logo</title><path class="cls-1" d="M114.64,12.93a0.44,0.44,0,0,1,0-.55A3,3,0,0,1,115,12l1.53-1.15c0.3-.23.59-0.48,0.9-0.7a0.45,0.45,0,0,0,.21-0.46,0.42,0.42,0,0,0-.44-0.28h-1.7a1.37,1.37,0,0,0-.76.23c-0.31.21-.58,0.44-0.86,0.67l-2.56,2a0.33,0.33,0,0,1-.36.14,0.31,0.31,0,0,1-.1-0.35V5.38a0.71,0.71,0,0,0-.61-0.8h-0.15a9,9,0,0,0-1,0,0.66,0.66,0,0,0-.76.76V18.27a0.64,0.64,0,0,0,.56.72h0.14a9.3,9.3,0,0,0,1,0,0.7,0.7,0,0,0,.76-0.76v-2.6a0.62,0.62,0,0,1,.18-0.5c0.37-.32.76-0.63,1.15-0.93a0.39,0.39,0,0,1,.61.13c0.11,0.17,1.94,3.27,2.18,3.64,0.12,0.18.21,0.39,0.35,0.57a1,1,0,0,0,.53.41,5.15,5.15,0,0,0,1.73,0,0.46,0.46,0,0,0,.3-0.76C117.72,17.91,114.7,13,114.64,12.93Z" transform="translate(-8.5 -0.02)"/><path class="cls-1" d="M51.71,10.15a0.64,0.64,0,0,0-.59-0.69h0a1.41,1.41,0,0,0-.31,0h-4.2a5.93,5.93,0,0,0-1.28.15,5.86,5.86,0,0,0-2.2.9,4,4,0,0,0-1.33,1.6,5.61,5.61,0,0,0,.12,5,4.52,4.52,0,0,0,1.93,1.76,5.58,5.58,0,0,0,2.43.4,4.27,4.27,0,0,0,2.76-1,0.17,0.17,0,0,1,.3.08c0.1,0.43.13,0.66,0.57,0.68s0.68,0,1,0a0.69,0.69,0,0,0,.76-0.76C51.67,16.91,51.71,10.15,51.71,10.15ZM49.2,15.32a2.06,2.06,0,0,1-1.44,1.8,3.67,3.67,0,0,1-2.67.11c-2.57-.89-2.15-4.94.37-5.61a4.74,4.74,0,0,1,1.67-.22H49c0.27,0,.31,0,0.31.31C49.29,12.31,49.24,14.72,49.2,15.32Z" transform="translate(-8.5 -0.02)"/><path class="cls-1" d="M63.17,11.63a4,4,0,0,0-1.22-1.41,5,5,0,0,0-1.83-.83,15.45,15.45,0,0,0-6.2.11,0.57,0.57,0,0,0-.4.54c0,1.12,0,6.46,0,8.29A0.6,0.6,0,0,0,54,19h0.1a6.82,6.82,0,0,0,1.17,0A0.64,0.64,0,0,0,56,18.27V11.61a0.57,0.57,0,0,1,.5-0.57,8.4,8.4,0,0,1,2.9.09,2,2,0,0,1,1.69,2v5a0.7,0.7,0,0,0,.62.76H61.8a9.07,9.07,0,0,0,1.06,0,0.63,0.63,0,0,0,.7-0.72V13A3,3,0,0,0,63.17,11.63Z" transform="translate(-8.5 -0.02)"/><path class="cls-1" d="M125.93,16.61a2.92,2.92,0,0,1-1,.56,4.46,4.46,0,0,1-2.38.06,1.72,1.72,0,0,1-1.47-1.92c0-.29,0-0.25.35-0.25h3.06c1,0,2-.08,2.94-0.09l0.33-.06c1,0,.62-2.43.39-3a3.54,3.54,0,0,0-1.25-1.7A5.06,5.06,0,0,0,125,9.37a7.07,7.07,0,0,0-2.73-.08A4.51,4.51,0,0,0,119.29,11c-2.22,3.18-.7,6.88,1.63,7.78a7.13,7.13,0,0,0,3.82.36,5.72,5.72,0,0,0,3.06-1.34C128.63,16.91,127.44,15.19,125.93,16.61Zm-4.84-3.71A2,2,0,0,1,123.38,11c2.41,0,2.44,1.72,2.44,1.93a0.41,0.41,0,0,1-.3.44h-4.09c-0.32,0-.37-0.17-0.35-0.48v0Z" transform="translate(-8.5 -0.02)"/><path class="cls-1" d="M39.86,11.57a4.41,4.41,0,0,0-.62-0.87,2.4,2.4,0,0,0-.45-0.37,5.57,5.57,0,0,0-3.12-.89h-2.5c-0.29,0-.31,0-0.31-0.31V5.29a0.7,0.7,0,0,0-.56-0.7,6.53,6.53,0,0,0-1.32,0,0.76,0.76,0,0,0-.66.76V18.27a0.63,0.63,0,0,0,.54.67,5.49,5.49,0,0,0,1.37,0,0.7,0.7,0,0,0,.63-0.76V11.6c0-.3,0-0.37.32-0.37h2.29a3.94,3.94,0,0,1,.87.15A1.59,1.59,0,0,1,37.7,13v5.24a0.64,0.64,0,0,0,.56.71h0.12a9,9,0,0,0,1.12,0,0.65,0.65,0,0,0,.68-0.71V13.07A3.06,3.06,0,0,0,39.86,11.57Z" transform="translate(-8.5 -0.02)"/><path class="cls-1" d="M106.08,9.45a1.21,1.21,0,0,0-.28,0H101.6a5.87,5.87,0,0,0-1.28.15,5.81,5.81,0,0,0-2.2.9,4,4,0,0,0-1.3,1.57,5.64,5.64,0,0,0,.12,5,4.58,4.58,0,0,0,1.93,1.76,5.61,5.61,0,0,0,2.44.4,4.26,4.26,0,0,0,2.75-1,0.17,0.17,0,0,1,.3.08c0.1,0.43.13,0.66,0.57,0.68s0.68,0,1,0a0.66,0.66,0,0,0,.72-0.76V10.09A0.63,0.63,0,0,0,106.08,9.45Zm-1.85,5.87a2.07,2.07,0,0,1-1.44,1.8,3.67,3.67,0,0,1-2.67.11c-2.57-.89-2.15-4.94.37-5.61a4.74,4.74,0,0,1,1.64-.22H104c0.27,0,.31,0,0.31.31,0,0.61,0,3-.09,3.61h0Z" transform="translate(-8.5 -0.02)"/><path class="cls-1" d="M95,11.57a4.19,4.19,0,0,0-.63-0.87,2.29,2.29,0,0,0-.44-0.37,5.58,5.58,0,0,0-3.15-.89H88.31C88,9.43,88,9.43,88,9.11V5.29a0.7,0.7,0,0,0-.56-0.7,6.35,6.35,0,0,0-1.34,0,0.76,0.76,0,0,0-.76.76V18.28a0.69,0.69,0,0,0,.61.67,5.74,5.74,0,0,0,1.4,0A0.72,0.72,0,0,0,88,18.19V11.61c0-.3,0-0.37.34-0.37h1.93a7.71,7.71,0,0,1,1.23.15A1.59,1.59,0,0,1,92.82,13v5.24a0.64,0.64,0,0,0,.56.71H93.5a9,9,0,0,0,1.12,0,0.65,0.65,0,0,0,.68-0.71V13.06A3.15,3.15,0,0,0,95,11.57Z" transform="translate(-8.5 -0.02)"/><path class="cls-1" d="M81.41,13.55c-0.67-.28-2.2-0.7-2.41-1.53-0.23-1.35,1.78-1.67,3.11-.47a1.19,1.19,0,0,0,1.34-.26c0.42-.31.89-0.76,0-1.31a5.54,5.54,0,0,0-2.88-.76,5.13,5.13,0,0,0-2.33.45,2.79,2.79,0,0,0-1.61,1.8,2.12,2.12,0,0,0,.47,2,4.91,4.91,0,0,0,2,1.29c0.67,0.3,1.38.53,2,.89a1.31,1.31,0,0,1,.45.37c0.31,0.43.07,2-2.38,1.24a4.58,4.58,0,0,1-1-.48,1,1,0,0,0-1.27.24c-0.56.51-.76,0.76-0.21,1.24,1.85,1.34,5.75,1.53,7.21-.76a2.29,2.29,0,0,0-.38-2.8A6.11,6.11,0,0,0,81.41,13.55Z" transform="translate(-8.5 -0.02)"/><path class="cls-1" d="M74.63,5.26c0-.35,0-0.6-0.36-0.66a5,5,0,0,0-1.3,0,0.68,0.68,0,0,0-.64.72v3.8c0,0.3,0,.31-0.31.31H69.74a6.61,6.61,0,0,0-2,.25c-3.82,1.15-3.3,5.23-2.73,6.75,0.34,0.79,1.2,2.57,4.26,2.54h4.86a0.6,0.6,0,0,0,.47-0.7l0-.06C74.63,16.09,74.63,5.26,74.63,5.26ZM72.19,17.16H69.47c-3.82.15-3.41-5.16-1-5.72a4.06,4.06,0,0,1,1.23-.18h2.35c0.36,0,.25,0,0.25.37v5.25C72.33,17.08,72.38,17.16,72.19,17.16Z" transform="translate(-8.5 -0.02)"/><path class="cls-2" d="M8.52,7.43A0.92,0.92,0,0,1,9,6.67a6.45,6.45,0,0,1,3.12-.09c2,0.59,2.94,3.13,7.77,1.89a7,7,0,0,1,3.74,0,0.92,0.92,0,0,1,.66.9c0,1.6,0,5.45,0,8.15a1.45,1.45,0,0,1-1.44,1.44c-1,0-2.12,0-3,0a1.45,1.45,0,0,1-1.43-1.44c0-1.67,0-3.59-.08-5.28,0-1.51-1.54-2.6-3.47-2.11-0.22.06-.31,0.1-0.31,0.28,0,0.47,0,4.65-.06,7.1A1.45,1.45,0,0,1,13,18.92h-3A1.45,1.45,0,0,1,8.5,17.47c0-2.8,0-8.73,0-10" transform="translate(-8.5 -0.02)"/><path class="cls-2" d="M24.27,4.6A2.67,2.67,0,1,1,21.6,1.93,2.67,2.67,0,0,1,24.27,4.6" transform="translate(-8.5 -0.02)"/><path class="cls-2" d="M14.15,2.84A2.82,2.82,0,1,1,11.33,0a2.82,2.82,0,0,1,2.82,2.81" transform="translate(-8.5 -0.02)"/></svg>